<?xml version="1.0" encoding="UTF-8" standalone="no"?>
<!DOCTYPE svg PUBLIC "-//W3C//DTD SVG 1.1//EN" "http://www.w3.org/Graphics/SVG/1.1/DTD/svg11.dtd">
<svg xmlns="http://www.w3.org/2000/svg" xmlns:xlink="http://www.w3.org/1999/xlink" version="1.1" width="486pt" height="119pt" viewBox="0 0 486 119">
<g enable-background="new">
<g>
<g>
<clipPath id="cp0">
<path transform="matrix(1,0,0,-1,-212,264)" d="M 0 0 L 960 0 L 960 540 L 0 540 Z "/>
</clipPath>
<g clip-path="url(#cp0)">
<g id="Layer-1" data-name="Artifact">
<clipPath id="cp1">
<path transform="matrix(1,0,0,-1,-212,264)" d="M 0 .00012207 L 960 .00012207 L 960 540.0001 L 0 540.0001 Z " fill-rule="evenodd"/>
</clipPath>
<g clip-path="url(#cp1)">
<path transform="matrix(1,0,0,-1,-212,264)" d="M 0 .000061035 L 960 .000061035 L 960 540.00009 L 0 540.00009 Z " fill="#ffffff" fill-rule="evenodd"/>
</g>
</g>
<g id="Layer-1" data-name="P">
<clipPath id="cp2">
<path transform="matrix(1,0,0,-1,-212,264)" d="M 569.16 134.52 L 714 134.52 L 714 279.24 L 569.16 279.24 Z " fill-rule="evenodd"/>
</clipPath>
<g clip-path="url(#cp2)">
<clipPath id="cp3">
<path transform="matrix(-12.431098,.0000011617273,-.000004661831,-12.427427,502,129.48)" d="M 0 0 L 11.652 0 L 11.652 11.645 L 0 11.645 Z " fill-rule="evenodd"/>
</clipPath>
<g clip-path="url(#cp3)">
<path transform="matrix(-12.431098,.0000011617273,-.000004661831,-12.427427,502,129.48)" d="M 8.593 8.308 L 7.921 8.572 C 7.321 7.084 6.601 5.956 5.713 5.164 C 4.669 6.016 3.877 7.156 3.433 8.428 L 2.749 8.188 C 3.229 6.856 4.045 5.644 5.137 4.72 C 4.465 4.264 3.709 3.964 2.905 3.82 L 3.037 3.112 C 4.009 3.28 4.933 3.664 5.725 4.252 C 6.841 3.448 7.933 3.052 8.485 3.04 L 8.509 3.76 C 8.173 3.772 7.273 4.072 6.301 4.732 C 7.213 5.596 7.981 6.784 8.593 8.308 Z "/>
<path transform="matrix(-12.431098,.0000011617273,-.000004661831,-12.427427,502,129.48)" d="M 2.497 1.72 L 9.937 1.72 L 9.937 9.16 L 9.973 9.16 L 10.753 9.16 L 9.577 10.348 L 8.389 9.172 L 9.217 9.16 L 9.217 2.44 L 2.485 2.44 L 2.485 3.268 L 1.309 2.08 L 2.497 .904 Z "/>
</g>
</g>
</g>
<g id="Layer-1" data-name="Span">
<clipPath id="cp4">
<path transform="matrix(1,0,0,-1,-212,264)" d="M .000014305 0 L 960 0 L 960 540 L .000014305 540 Z " fill-rule="evenodd"/>
</clipPath>
<g clip-path="url(#cp4)">
<symbol id="font_5_30">
<path d="M .72802737 .024902344 C .72802737 .014811198 .7233073 .009765625 .7138672 .009765625 L .5410156 .009765625 C .5315755 .009765625 .52685549 .015462239 .52685549 .026855469 C .52685549 .059733076 .5279948 .10904948 .53027346 .17480469 C .5328776 .24055989 .5341797 .2898763 .5341797 .3227539 C .5341797 .332194 .53271487 .3372396 .52978518 .33789063 C .5262044 .3359375 .50439456 .28564454 .46435548 .18701172 C .44091798 .12906902 .41748048 .07128906 .39404298 .013671875 C .39078776 .006184896 .38671876 .0017903646 .38183595 .00048828127 C .38020835 .00016276042 .3736979 0 .3623047 0 C .3453776 0 .33528648 .0032552083 .33203126 .009765625 C .31445313 .045572919 .29134117 .09765625 .2626953 .16601563 C .23209636 .23828125 .20914714 .29052735 .19384766 .3227539 C .19319661 .3243815 .19173177 .32617188 .18945313 .328125 C .18717449 .3251953 .18603516 .32047526 .18603516 .31396485 C .18603516 .2820638 .18684896 .23421224 .18847656 .17041016 C .19010417 .10660807 .19091797 .05875651 .19091797 .026855469 C .19091797 .015462239 .18636067 .009765625 .1772461 .009765625 L .014160156 .009765625 C .0076497399 .009765625 .0035807293 .0107421879 .001953125 .0126953129 C .0006510417 .014973958 0 .018717448 0 .023925782 C 0 .05940755 .0016276041 .11263021 .0048828127 .18359375 C .008463542 .2548828 .010253906 .30826823 .010253906 .34375 C .010253906 .3815104 .008626302 .4523112 .0053710939 .55615237 C .0050455729 .5831706 .0035807293 .6233724 .0009765625 .6767578 L .00048828127 .6850586 C .00016276042 .69156906 .0069986979 .6948242 .020996094 .6948242 C .03889974 .6948242 .06575521 .6953125 .1015625 .69628909 C .1373698 .6975911 .16422527 .6982422 .1821289 .6982422 C .18570964 .6982422 .1907552 .69140627 .19726563 .6777344 L .33984376 .3647461 C .3499349 .34358726 .35839845 .3330078 .36523438 .3330078 C .3688151 .3330078 .37646485 .34521485 .3881836 .3696289 C .4210612 .43798829 .46972657 .5410156 .5341797 .67871096 C .53971359 .69140627 .54573568 .6977539 .5522461 .6977539 C .5616862 .6977539 .5758464 .6972656 .59472659 .69628909 C .6139323 .6953125 .62841799 .6948242 .6381836 .6948242 C .6463216 .6948242 .6586914 .695638 .67529299 .6972656 C .69222006 .69889327 .7047526 .69970706 .7128906 .69970706 C .72265627 .69970706 .72753909 .6958008 .72753909 .6879883 C .72753909 .64957687 .7260742 .5921224 .72314456 .515625 C .72054037 .43945313 .7192383 .38216148 .7192383 .34375 C .7192383 .30826823 .7207031 .25504557 .7236328 .18408203 C .7265625 .11311849 .72802737 .060058595 .72802737 .024902344 Z "/>
</symbol>
<symbol id="font_5_26">
<path d="M .5883789 .1274414 C .5883789 .12223307 .58496096 .11539713 .578125 .106933597 C .5182292 .03564453 .4386393 0 .33935548 0 C .23779297 0 .1554362 .03466797 .092285159 .104003909 C .030761719 .1710612 0 .25569663 0 .35791017 C 0 .4568685 .030110678 .54085287 .09033203 .6098633 C .15315755 .6821289 .23307292 .7182617 .33007813 .7182617 C .43554688 .7182617 .5182292 .6858724 .578125 .62109377 C .58463546 .6139323 .5878906 .60758468 .5878906 .6020508 C .5878906 .5958659 .5764974 .5729167 .55371096 .5332031 C .53125 .4934896 .51708987 .4711914 .51123049 .4663086 C .5086263 .46370445 .5053711 .46240235 .50146487 .46240235 C .49983726 .46240235 .49169923 .46891276 .47705079 .4819336 C .45947267 .4975586 .44222007 .5097656 .42529298 .5185547 C .3995768 .5315755 .37288413 .53808596 .34521485 .53808596 C .29736329 .53808596 .2591146 .5201823 .23046875 .484375 C .20410156 .45117188 .19091797 .41015626 .19091797 .36132813 C .19091797 .31184898 .20410156 .27034507 .23046875 .2368164 C .2591146 .20035808 .29736329 .1821289 .34521485 .1821289 C .37353517 .1821289 .40039063 .1883138 .42578126 .2006836 C .4423828 .20882161 .4593099 .22021485 .4765625 .23486328 C .4908854 .24723308 .4988607 .25341798 .5004883 .25341798 C .50374349 .25341798 .5069987 .2516276 .5102539 .24804688 C .5154622 .2421875 .5296224 .22184246 .5527344 .18701172 C .5764974 .1508789 .5883789 .13102214 .5883789 .1274414 Z "/>
</symbol>
<symbol id="font_5_27">
<path d="M .6352539 .3491211 C .6352539 .25341798 .6044922 .17041016 .54296877 .100097659 C .48860679 .037272138 .41227214 .004231771 .31396485 .0009765625 C .29508464 .00032552085 .24316406 0 .15820313 0 C .14225261 0 .11816406 .00048828127 .0859375 .0014648438 C .054036458 .0024414063 .030110678 .0029296876 .014160156 .0029296876 C .0047200524 .0029296876 0 .0066731774 0 .014160156 C 0 .04996745 .0013020834 .10367838 .00390625 .17529297 C .0068359377 .24723308 .008300781 .30110679 .008300781 .33691407 C .008300781 .37434898 .0068359377 .43033854 .00390625 .5048828 C .0013020834 .5797526 0 .6357422 0 .67285159 C 0 .6796875 .0047200524 .68375656 .014160156 .6850586 C .037272138 .6876628 .07519531 .68896487 .12792969 .68896487 C .22819011 .68896487 .2931315 .6875 .3227539 .6845703 C .39990235 .6767578 .46028648 .65722659 .50390627 .62597659 C .5449219 .5966797 .5773112 .55566409 .6010742 .5029297 C .62386068 .453125 .6352539 .40185548 .6352539 .3491211 M .4482422 .3491211 C .4482422 .40413413 .43180339 .449056 .39892579 .48388673 C .36572267 .52001956 .32177735 .53808596 .26708985 .53808596 C .21695964 .53808596 .19189453 .5314128 .19189453 .5180664 C .19189453 .4988607 .19156902 .4698893 .19091797 .43115235 C .19026692 .39274089 .1899414 .36393229 .1899414 .34472657 C .1899414 .32584635 .19026692 .29736329 .19091797 .25927735 C .19156902 .22151692 .19189453 .19303386 .19189453 .17382813 C .19189453 .15983074 .2179362 .15283203 .27001954 .15283203 C .32633464 .15283203 .37060548 .17154949 .40283204 .20898438 C .43310548 .24446614 .4482422 .29117839 .4482422 .3491211 Z "/>
</symbol>
<symbol id="font_5_24">
<path d="M .68603518 .016113282 C .68603518 .010253906 .6819661 .006184896 .6738281 .00390625 C .6640625 .0013020834 .63378909 0 .5830078 0 C .5364583 0 .50651046 .0013020834 .49316407 .00390625 C .48209635 .006184896 .47509767 .013509114 .47216798 .025878907 C .46110026 .072753909 .45247398 .09781901 .44628907 .10107422 C .44108073 .10335287 .39746095 .10449219 .3154297 .10449219 C .26009117 .10449219 .23063152 .103027347 .22705078 .100097659 C .22151692 .09488932 .21533203 .07747396 .2084961 .047851564 C .2023112 .020833334 .19482422 .006184896 .18603516 .00390625 C .17496746 .0013020834 .13785808 0 .07470703 0 C .024902344 0 0 .0047200524 0 .014160156 C 0 .022623698 .036783857 .12662761 .11035156 .32617188 C .19010417 .5419922 .23339844 .66064456 .24023438 .6821289 C .24414063 .6944987 .24869792 .7006836 .25390626 .7006836 C .2626953 .7006836 .27620445 .6998698 .2944336 .6982422 C .31298829 .69661459 .3268229 .6958008 .3359375 .6958008 C .34472657 .6958008 .35758464 .69628909 .37451173 .6972656 C .3917643 .6985677 .4046224 .69921877 .41308595 .69921877 C .41927085 .69921877 .42496745 .69384768 .43017579 .68310549 C .4461263 .6489258 .49267579 .5317383 .5698242 .33154298 C .64729818 .13004558 .68603518 .024902344 .68603518 .016113282 M .33984376 .4609375 C .3330078 .4466146 .3214518 .41552735 .30517579 .36767579 C .28759767 .31689454 .2788086 .28710938 .2788086 .2783203 C .2788086 .27246095 .28857423 .26920573 .30810548 .2685547 C .31819663 .26790367 .3347982 .26757813 .35791017 .26757813 C .37939454 .26757813 .39127604 .27018229 .3935547 .27539063 C .39420573 .27701823 .39453126 .27929688 .39453126 .28222657 C .39453126 .29296876 .38704429 .32259117 .3720703 .37109376 C .35742188 .41796876 .3466797 .44791667 .33984376 .4609375 Z "/>
</symbol>
<symbol id="font_5_33">
<path d="M .58902999 .4272461 C .58902999 .34847007 .5683594 .28466798 .52701827 .23583985 C .4827474 .18408203 .42171226 .15820313 .34391276 .15820313 C .33089195 .15820313 .3111979 .15885417 .28483073 .16015625 C .25878907 .16178386 .23925781 .16259766 .22623699 .16259766 C .21223958 .16259766 .20524089 .15657552 .20524089 .14453125 C .20524089 .1295573 .20670574 .10725912 .20963542 .07763672 C .21256511 .048014326 .21402996 .025878907 .21402996 .011230469 C .21402996 .0037434896 .21061199 0 .20377605 0 C .18391927 0 .15413411 .0006510417 .11442058 .001953125 C .07470703 .0029296876 .044921876 .0034179688 .025065106 .0034179688 C .015625002 .0034179688 .010904949 .0081380209 .010904949 .017578125 C .010904949 .053710939 .01139323 .107910159 .012369793 .18017578 C .013671876 .25276695 .014322918 .3071289 .014322918 .34326173 C .014322918 .44547526 .009928387 .55289718 .0011393242 .66552737 L .0006510429 .6723633 C .0000000012417635 .67854818 .004882814 .6822917 .01529948 .68359377 C .040690107 .68684896 .09667969 .68847659 .18326824 .68847659 C .234375 .68847659 .28336589 .6878255 .33024089 .68652346 C .4073893 .6842448 .4695638 .65999349 .51676437 .61376956 C .5649414 .56624349 .58902999 .50406906 .58902999 .4272461 M .39420573 .4194336 C .39420573 .49527995 .35725913 .5332031 .28336589 .5332031 C .23128255 .5332031 .2039388 .53027346 .20133464 .52441409 C .19905599 .5201823 .19791667 .48258464 .19791667 .4116211 C .19791667 .40152995 .19824219 .386556 .19889324 .36669923 C .1998698 .34716798 .20035808 .33235679 .20035808 .32226563 C .20035808 .31575523 .22965496 .3125 .2882487 .3125 C .35888673 .3125 .39420573 .34814454 .39420573 .4194336 Z "/>
</symbol>
<symbol id="font_5_5c">
<path d="M .49804688 .51123049 C .49804688 .44807945 .49609376 .40966798 .4921875 .3959961 C .4873047 .37972007 .45166017 .32080079 .3852539 .21923828 C .37483726 .20328777 .34798179 .16634114 .3046875 .10839844 C .25683595 .044596357 .22965496 .010904948 .22314453 .0073242189 C .21533203 .0024414063 .16536458 0 .07324219 0 C .059244794 0 .049804689 .0016276041 .044921876 .0048828127 C .040690107 .018229166 .03531901 .034016927 .028808594 .052246095 C .02360026 .06363932 .018391928 .07519531 .013183594 .08691406 C .0056966149 .10384115 .001953125 .11507162 .001953125 .12060547 C .001953125 .12679036 .0047200524 .12988281 .010253906 .12988281 C .100748699 .12988281 .1459961 .15055339 .1459961 .19189453 C .1459961 .19547527 .12386068 .22786458 .079589847 .2890625 C .033691408 .35188804 .008463542 .39160157 .00390625 .40820313 C .0013020834 .41764323 0 .45133464 0 .50927737 C 0 .5209961 .00032552085 .5385742 .0009765625 .5620117 C .0016276041 .5857747 .001953125 .6035156 .001953125 .6152344 C .001953125 .62369796 .0073242189 .6279297 .018066407 .6279297 C .03466797 .6279297 .059733076 .6274414 .09326172 .62646487 C .12711589 .6254883 .15234375 .625 .16894531 .625 C .17578125 .625 .17919922 .6199544 .17919922 .6098633 C .17919922 .6007487 .17871094 .58691409 .17773438 .5683594 C .17675781 .5501302 .17626953 .5364583 .17626953 .52734377 C .17626953 .48632813 .17692058 .4584961 .17822266 .44384767 C .17919922 .43245445 .18896485 .41129557 .20751953 .3803711 C .22705078 .34814454 .24121094 .33203126 .25 .33203126 C .25748698 .33203126 .27018229 .34798179 .28808595 .3798828 C .3046875 .41015626 .3136393 .4305013 .3149414 .44091798 C .31819663 .4695638 .31982423 .50065109 .31982423 .5341797 C .31982423 .54296877 .3190104 .5563151 .3173828 .57421877 C .31575523 .5921224 .3149414 .60563156 .3149414 .6147461 C .3149414 .62093099 .31835938 .62402346 .3251953 .62402346 C .34179688 .62402346 .36653648 .6246745 .39941407 .62597659 C .4326172 .6272786 .45751954 .6279297 .4741211 .6279297 C .48258464 .6279297 .48828126 .62369796 .49121095 .6152344 C .49576823 .60026046 .49804688 .56559249 .49804688 .51123049 Z "/>
</symbol>
<use xlink:href="#font_5_30" transform="matrix(87.984,0,0,-87.984,.29240275,82.19922)"/>
<use xlink:href="#font_5_26" transform="matrix(87.984,0,0,-87.984,70.76175,82.84363)"/>
<use xlink:href="#font_5_27" transform="matrix(87.984,0,0,-87.984,127.33717,81.59776)"/>
<use xlink:href="#font_5_24" transform="matrix(87.984,0,0,-87.984,186.2033,81.683689)"/>
<use xlink:href="#font_5_33" transform="matrix(87.984,0,0,-87.984,250.6008,81.640727)"/>
<use xlink:href="#font_5_5c" transform="matrix(87.984,0,0,-87.984,306.3911,95.68895)"/>
</g>
</g>
<g id="Layer-1" data-name="P">
<path transform="matrix(1,0,0,-1,-212,264)" d="M 603 170.76 L 682.2 170.76 L 682.2 246.59999 L 603 246.59999 Z " fill="#ffffff" fill-rule="evenodd"/>
<path transform="matrix(1,0,0,-1,-212,264)" stroke-width="1" stroke-linecap="butt" stroke-miterlimit="10" stroke-linejoin="miter" fill="none" stroke="#ffffff" d="M 603 170.76 L 682.2 170.76 L 682.2 246.59999 L 603 246.59999 Z "/>
</g>
<g id="Layer-1" data-name="P">
<clipPath id="cp6">
<path transform="matrix(1,0,0,-1,-212,264)" d="M 602.64 170.76 L 688.44 170.76 L 688.44 256.44 L 602.64 256.44 Z " fill-rule="evenodd"/>
</clipPath>
<g clip-path="url(#cp6)">
<clipPath id="cp7">
<path transform="matrix(7.363991,.0000011617273,-.000004661831,-7.357532,390.64,93.240009)" d="M 0 0 L 11.652 0 L 11.652 11.645 L 0 11.645 Z " fill-rule="evenodd"/>
</clipPath>
<g clip-path="url(#cp7)">
<path transform="matrix(7.363991,.0000011617273,-.000004661831,-7.357532,390.64,93.240009)" d="M 7.645 10 L 7.957 10 L 8.281 9.676 L 8.449 9.844 L 8.125 10.168 L 8.125 10.48 C 8.125 10.552 8.077 10.6 8.005 10.6 C 7.933 10.6 7.885 10.552 7.885 10.48 L 7.885 10.24 L 7.645 10.24 C 7.573 10.24 7.525 10.192 7.525 10.12 C 7.525 10.048 7.573 10 7.645 10 Z "/>
<path transform="matrix(7.363991,.0000011617273,-.000004661831,-7.357532,390.64,93.240009)" d="M 10.633 7.504 C 10.933 7.972 10.801 8.608 10.333 8.908 L 9.109 9.688 C 8.989 9.772 8.821 9.796 8.677 9.748 C 8.413 9.664 8.269 9.376 8.353 9.1 L 8.809 7.72 C 8.881 7.504 9.025 7.324 9.217 7.192 C 9.457 7.036 9.721 7 9.973 7.048 C 9.961 6.448 9.769 5.704 9.073 5.428 C 8.065 5.032 8.017 6.172 7.273 7.708 C 6.529 9.244 3.769 8.776 3.193 7.468 C 2.569 6.052 3.373 5.212 3.673 4.828 C 3.973 4.444 5.197 3.688 5.473 3.268 C 5.749 2.848 5.221 2.092 4.393 3.388 C 3.565 4.684 2.893 5.176 2.245 4.96 C 1.597 4.744 1.465 4 1.765 3.16 C 2.065 2.32 3.193 1.756 2.845 1.48 C 2.653 1.324 1.681 1.36 1.165 1.48 C 1.033 1.516 .961 1.324 1.081 1.264 C 1.741 .88 3.193 .52 3.565 1.252 C 4.045 2.176 3.025 2.356 2.605 3.412 C 2.185 4.468 3.013 3.736 3.325 3.292 C 3.637 2.848 4.213 1.78 5.005 1.492 C 5.797 1.204 6.757 2.092 6.817 3.112 C 6.877 4.132 5.929 4.504 5.365 4.96 C 4.801 5.416 4.033 6.472 5.005 7 C 5.977 7.528 6.553 5.896 6.805 5.32 C 7.057 4.744 7.645 4.324 8.365 4.24 C 9.085 4.156 9.889 4.504 10.405 5.44 C 10.753 6.064 10.669 6.832 10.525 7.372 C 10.561 7.408 10.597 7.456 10.633 7.504 Z "/>
</g>
</g>
</g>
</g>
</g>
</g>
</g>
</svg>
